<?xml version="1.0" standalone="no"?>
<!DOCTYPE svg PUBLIC "-//W3C//DTD SVG 20010904//EN"
 "http://www.w3.org/TR/2001/REC-SVG-20010904/DTD/svg10.dtd">
<svg version="1.0" xmlns="http://www.w3.org/2000/svg"
 width="94.000000pt" height="94.000000pt" viewBox="0 0 94.000000 94.000000"
 preserveAspectRatio="xMidYMid meet">

<g transform="translate(0.000000,94.000000) scale(0.100000,-0.100000)"
fill="#000000" stroke="none">
<path d="M542 791 c-8 -4 -12 -19 -10 -32 5 -35 47 -37 71 -3 11 14 17 27 15
29 -10 9 -65 14 -76 6z"/>
<path d="M723 370 c-29 -21 -66 -46 -83 -55 -29 -15 -31 -15 -38 5 -8 21 -8
21 -19 -3 -6 -14 -25 -31 -42 -38 -17 -8 -31 -20 -31 -26 0 -7 -9 -13 -20 -13
-11 0 -19 5 -17 11 1 6 -4 14 -10 16 -7 3 -13 -2 -13 -11 0 -20 -26 -21 -34
-1 -3 8 -15 15 -26 15 -12 0 -19 -4 -16 -9 10 -15 -22 -21 -115 -21 -98 0
-106 -6 -60 -49 42 -40 92 -52 231 -58 269 -11 360 41 360 209 0 37 -3 68 -7
68 -5 0 -31 -18 -60 -40z"/>
<path d="M495 370 c3 -5 8 -10 11 -10 2 0 4 5 4 10 0 6 -5 10 -11 10 -5 0 -7
-4 -4 -10z"/>
</g>
</svg>
