<?xml version="1.0" standalone="no"?>
<!DOCTYPE svg PUBLIC "-//W3C//DTD SVG 20010904//EN"
 "http://www.w3.org/TR/2001/REC-SVG-20010904/DTD/svg10.dtd">
<svg version="1.0" xmlns="http://www.w3.org/2000/svg"
 width="50.000000pt" height="50.000000pt" viewBox="0 0 50.000000 50.000000"
 preserveAspectRatio="xMidYMid meet">

<g transform="translate(0.000000,50.000000) scale(0.100000,-0.100000)"
fill="#000000" stroke="none">
<path d="M284 450 c-57 -23 -73 -109 -28 -154 21 -20 37 -26 69 -26 26 0 48
-6 55 -15 31 -37 110 -2 110 48 0 26 -33 67 -54 67 -8 0 -19 14 -26 30 -20 49
-76 71 -126 50z m93 -32 c41 -38 28 -105 -26 -128 -61 -25 -126 40 -101 101 7
16 20 34 29 39 28 16 74 11 98 -12z m81 -80 c35 -35 -14 -102 -58 -78 -12 6
-20 14 -18 18 17 34 45 72 54 72 5 0 15 -5 22 -12z"/>
<path d="M307 403 c-12 -11 -8 -41 6 -39 6 0 12 -3 12 -9 0 -5 -9 -9 -20 -8
-20 3 -20 2 -1 -12 14 -11 23 -12 33 -4 20 17 16 39 -9 49 -18 7 -19 9 -5 9 9
1 17 6 17 11 0 11 -23 14 -33 3z"/>
<path d="M20 185 l0 -125 225 0 225 0 0 86 c0 54 -4 83 -10 79 -5 -3 -10 -37
-10 -76 0 -67 -1 -69 -25 -69 -24 0 -25 2 -25 70 0 40 -4 70 -10 70 -6 0 -10
-30 -10 -70 l0 -70 -135 0 -135 0 0 110 0 109 58 4 c36 2 19 4 -45 5 l-103 2
0 -125z m68 3 l3 -108 -26 0 -25 0 0 111 c0 109 0 110 23 107 21 -3 22 -8 25
-110z"/>
<path d="M206 234 c-9 -8 -16 -19 -16 -24 0 -4 -9 -10 -20 -13 -11 -3 -20 -14
-20 -25 0 -22 27 -49 38 -37 4 4 1 10 -5 12 -7 3 -13 9 -13 14 0 12 64 79 75
79 11 0 75 -67 75 -79 0 -5 -6 -11 -12 -14 -7 -2 -10 -8 -6 -12 11 -12 38 15
38 37 0 11 -9 22 -20 25 -11 3 -20 9 -20 13 0 17 -32 40 -55 40 -13 0 -31 -7
-39 -16z"/>
</g>
</svg>
